<?xml version="1.0" standalone="no"?><!DOCTYPE svg PUBLIC "-//W3C//DTD SVG 1.1//EN" "http://www.w3.org/Graphics/SVG/1.1/DTD/svg11.dtd"><svg t="1745604582938" class="icon" viewBox="0 0 1024 1024" version="1.1" xmlns="http://www.w3.org/2000/svg" p-id="2980" data-darkreader-inline-fill="" xmlns:xlink="http://www.w3.org/1999/xlink" width="256" height="256"><path d="M888.05678 968.802815c-31.852032-3.28064-32.20992-16.99968-31.852032-199.67168 0 0-3.191168-11.512064 15.120768-21.47328 18.282112-9.931392 73.933696-98.657792 39.725568-174.380928-34.178304-75.723136-9.513856-71.87584 4.77184-64.240896 14.31552 7.664768 21.234688-2.028032 12.734848-43.54304-17.506688-85.684352-44.825472-114.703104-109.215488-153.355007-42.290432-25.410048-26.960896-71.458304 33.164288-68.058368 29.346816 1.670144 29.346816 1.699968 33.015168-20.459264 5.845504-34.89408-5.726208-94.482432-50.820096-102.684032-31.01696-5.66656-69.579392 26.24512-115.478528 3.996416-45.899136-22.248704-121.741568 33.313408-152.758527 46.2272-31.01696 12.883968-56.6656 13.033088-92.036864 12.168192-35.430912-0.805248 18.78912 56.397184 73.009152 69.281152 46.555264 11.064704 28.452096 19.027712 25.79776 55.651584-2.9824 40.978176 9.215616 58.574336-10.676992 62.868991-30.480128 6.56128-64.56896-72.233728-116.91008-105.248895C326.828749 190.933248 256.354637 226.602752 49.137485 7.396352c-35.967744-37.965952-21.383808 79.540608 0.715776 142.26048 59.111168 167.61088 173.57568 189.82976 227.616768 194.870015 45.18336 4.264832 75.991552-5.81568 75.991552 10.945408 0 12.168192-53.295488 17.685632-73.933696 17.74528a377.005183 377.005183 0 0 1-67.491712-6.352512c-41.097472-7.366528 21.77152 93.378944 62.212864 125.320448 68.177664 53.98144 146.227072 74.202112 208.976768 80.316032 18.132992 1.759616 43.900928 1.461376 43.900928 15.090944 0 12.97344-13.56992 16.10496-29.615232 16.25408-87.861504 0.626304-138.353536 68.088192-152.69888 146.1376-9.066496 49.567488-2.266624 105.636608-1.312256 147.509504l3.459584 29.913472c6.85952 52.549888-189.53152 72.77056-215.538048-11.840128-28.48192-92.4544 126.752-141.36576 129.58528-229.585152 1.78944-55.591936-51.058688-80.82304-51.058688-80.82304v-81.180928H149.077709v-58.45504H88.326221v-58.45504H27.515086v175.36512h60.781311v58.544512h100.119168c22.755712 0 40.978176 14.434816 38.890496 45.660544-5.249024 77.09504-175.782656 124.485376-128.899328 247.39008 33.85024 88.786048 179.868544 89.91936 326.065792 89.919359l272.651008-0.178944c8.49984 0 20.459264-3.936768 3.071872-46.227199-14.047104-34.14848-62.511104-10.14016-103.6384-10.14016-43.54304 0-45.03424-35.371264-17.089152-72.710912 17.089152-22.755712 38.830848-39.66592 75.782784-56.248064 56.934016-25.529344 100.238464 7.30688 121.592447 35.49056 30.629248 40.471168 40.381696 86.758016 13.331328 94.005248-32.597632 8.768256-42.64832 9.931392-43.721984 39.785215-0.805248 21.383808 9.84192 15.538304 61.109376 15.538304h170.265216c26.334592 0 24.396032-19.53472-2.117504-53.384959-18.78912-24.067968-39.36768 4.02624-87.68256-1.014016z" p-id="2981" fill="#FFFFFF" data-darkreader-inline-fill="" style="--darkreader-inline-fill: var(--darkreader-background-ffffff, #181a1b);"></path><path d="M199.897805 509.692159h-19.892608v-19.08736H199.897805z" p-id="2982" fill="#FFFFFF" data-darkreader-inline-fill="" style="--darkreader-inline-fill: var(--darkreader-text-ffffff, #e8e6e3);"></path></svg>